<svg xmlns="http://www.w3.org/2000/svg" width="270" height="198" xmlns:xlink="http://www.w3.org/1999/xlink" preserveAspectRatio="none" viewBox="0 0 270 198">
  <g transform="matrix(.99997 0 0 1.0002 93.5 115.804)">
    <path id="a" fill="#E17107" d="M10.5-12.2Q14.8-8 14.8-1.8v16H22v-16q0-9.4-6.5-15.8Q9.4-24 .2-24q-9.2 0-15.8 6.4-6.4 6.4-6.4 15.8v16h7.4v-16q0-6.2 4.3-10.4h-.2Q-6-16.4.2-16.4q6.2 0 10.4 4.3z"/>
  </g>
  <g transform="matrix(.99997 0 0 1.0002 94.35 158.813)">
    <path id="b" fill="#FFF" d="M-29.2 14.7q.4 8.6 9.6 9.6h39.2q9-1 9.6-9.6v-48h-58.4v48z"/>
    <path id="c" fill="none" stroke="#E17107" stroke-width="3" d="M29.2-33.4h-58.4v48q.4 8.7 9.6 9.7h39.2q9-1 9.6-9.6v-48z" stroke-linejoin="round" stroke-linecap="round"/>
  </g>
  <g transform="matrix(.99997 0 0 1.0002 94.2 155.212)">
    <path id="d" fill="#E17107" d="M4.8-.7L5-1q2.2-2 2.2-4.8 0-3-2.2-5h-.2Q2.5-13.2 0-13.2q-3 0-5.2 2l-.2.3q-1.8 2-1.8 5t2 5q.8.5 1.4 1.2v10q0 1.4 1 2.6 1.2 1.2 2.8 1.2 1.3 0 2.5-1 1-1.3 1-2.7V.5L5-.5z"/>
  </g>
  <g transform="scale(.9986 .99884) rotate(-28.055 373.453 -176.576)">
    <path id="e" fill="none" stroke="#E17107" stroke-width="3" d="M0 3v-6" stroke-linejoin="round" stroke-linecap="round"/>
  </g>
  <g transform="matrix(.99998 0 0 1.0002 163.2 160.763)">
    <path id="f" fill="none" stroke="#E17107" stroke-width="3" d="M-7.3 7.7Q10 2.5 6.7-7.8" stroke-linejoin="round" stroke-linecap="round"/>
  </g>
  <g transform="matrix(.99998 0 0 1.0002 162.25 163.464)">
    <path id="g" fill="none" stroke="#E17107" stroke-width="3" d="M9.7 8Q-2 1-6.8-7" stroke-linejoin="round" stroke-linecap="round"/>
  </g>
  <g transform="matrix(.99997 0 0 1.0002 124.9 123.705)">
    <path id="h" fill="none" stroke="#E17107" stroke-width="3" d="M6-1.4q-11.5.6-13 4" stroke-linejoin="round" stroke-linecap="round"/>
  </g>
  <g transform="matrix(.99998 0 0 1.0002 151.15 104.05)">
    <path id="i" fill="#FFF" d="M6.5 5.8l-2-13.3-11 1.7 2 13.3 11-1.7z"/>
    <path id="j" fill="none" stroke="#E17107" stroke-width="3" d="M4.5-7.5L6.5 6m-11 1.8L-6.4-6" stroke-linejoin="round" stroke-linecap="round"/>
  </g>
  <g transform="matrix(.99998 0 0 1.0002 132.2 34.186)">
    <path id="k" fill="none" stroke="#E17107" stroke-width="2.6" d="M2.8-16L3.8 3m-7.3-4.8l.4 11" stroke-linejoin="round" stroke-linecap="round"/>
  </g>
  <g transform="matrix(.99998 0 0 1.0002 188.35 100.65)">
    <path id="l" fill="none" stroke="#E17107" stroke-width="3" d="M12.7-14.8Q12-8.2 10.8-3.6 6.3 14-12.8 14.7" stroke-linejoin="round" stroke-linecap="round"/>
  </g>
  <g transform="matrix(.9816 -.18756 .1875 .98184 172.2 115.153)">
    <path id="m" fill="#FFF" d="M-4.8-5q-.8 1.3-.8 5 0 4.7 1.6 6 1 .8 5 1Q4.3 6.6 5.2 4q.4-1.3.4-6.6 0-2.4-1.8-3.6Q2.5-7 1-7q-4.4 0-5.8 2z"/>
    <path id="n" fill="none" stroke="#E17107" stroke-width="3" d="M5.6-2.4q0-2.4-1.8-3.6Q2.5-7 1-7q-4.4 0-5.8 2-.8 1.3-.8 5 0 4.7 1.6 6 1 .8 5 1Q4.3 6.6 5.2 4q.4-1.3.4-6.6z" stroke-linejoin="round" stroke-linecap="round"/>
  </g>
  <g transform="matrix(.97824 -.2042 .20414 .97847 136.6 122.305)">
    <path id="m" fill="#FFF" d="M-4.8-5q-.8 1.3-.8 5 0 4.7 1.6 6 1 .8 5 1Q4.3 6.6 5.2 4q.4-1.3.4-6.6 0-2.4-1.8-3.6Q2.5-7 1-7q-4.4 0-5.8 2z"/>
    <path id="n" fill="none" stroke="#E17107" stroke-width="3" d="M5.6-2.4q0-2.4-1.8-3.6Q2.5-7 1-7q-4.4 0-5.8 2-.8 1.3-.8 5 0 4.7 1.6 6 1 .8 5 1Q4.3 6.6 5.2 4q.4-1.3.4-6.6z" stroke-linejoin="round" stroke-linecap="round"/>
  </g>
  <g transform="matrix(-1.2462 .09264 .07086 .99745 199 58.44)">
    <path id="e" fill="none" stroke="#E17107" stroke-width="3" d="M0 3v-6" stroke-linejoin="round" stroke-linecap="round"/>
  </g>
  <g transform="matrix(-.97357 -.22507 -.22502 .9738 206.7 59.14)">
    <path id="e" fill="none" stroke="#E17107" stroke-width="3" d="M0 3v-6" stroke-linejoin="round" stroke-linecap="round"/>
  </g>
  <g transform="matrix(-.9962 -.08722 -.08714 .9961 202.95 57.84)">
    <path id="e" fill="none" stroke="#E17107" stroke-width="3" d="M0 3v-6" stroke-linejoin="round" stroke-linecap="round"/>
  </g>
  <g transform="matrix(.99724 .07065 -.07063 .99747 201.5 73.445)">
    <path id="o" fill="#FFF" d="M-3.3-13.8H-4q-4 .6-3.4 10.4l1 11.8q.5 4.4 2.8 5.3.5.3 1 .2l5.5-.2q3.2-.2 4-5.5l.4-11.8Q7.8-14 3.4-14l-6.7.2z"/>
    <path id="p" fill="none" stroke="#E17107" stroke-width="3" d="M3 13.8h-6.5q-2.4-1-3-5.4l-1-11.8q-.4-9.8 3.6-10.5l.7.2h6.7q4.4 0 4 10.3L7 8.3q-.8 5.3-4 5.6v-.2z" stroke-linejoin="round" stroke-linecap="round"/>
  </g>
  <g transform="scale(.99867 .9989) rotate(-25.84 359.666 -277.16)">
    <path id="q" fill="#FFF" d="M22.3-10q1.5-5.3-5-7l-23.5-6.6q-5.2-1.3-7 1.8-.7 1-1 1.8L-22 9l-.6 2v.8q0 4 5.3 5.2l23.5 6.6q5.5 1.4 7.5-2.3l.5-1.2 8-30z"/>
    <path id="r" fill="none" stroke="#E17107" stroke-width="3" d="M-22 9.2L-14-20q.3-1 1-1.8 1.8-3 7-1.8L17.3-17q6.5 1.7 5 7L14 20l-.3 1.3q-2 3.8-7.5 2.3L-17.4 17q-5.3-1.3-5.3-5.2V11q0-.4.3-1l.4-.8-.6 1.8" stroke-linejoin="round" stroke-linecap="round"/>
  </g>
  <g transform="matrix(.9986 -.0524 .05238 .99884 150.2 68.143)">
    <path id="s" fill="#FFF" d="M14.2-32q-6-3.2-13-3.5-12.8 0-22.4 9-3.7 3.4-6 7.6-1 1.4-1.5 2.8Q-31-11-31.5-5v2.2q-.2 1.6-.5 29v1q.6 1.8 2 3.3 2 1.6 5.6 2.8l3 .5 3.2.5q1.2 0 2.3.2 8.6.5 9.6.8h1.9l3.8.2H11l12-1q6.6-1.5 7.8-5.8.4-1 .8-6l.4-26q0-7.6-3.3-14-2-4.3-5.8-8.2-1.3-1.3-2.4-2-3-2.8-6.4-4.5z"/>
    <path id="t" fill="none" stroke="#E17107" stroke-width="3" d="M31.6 22.6l.4-26q0-7.5-3.3-14-2-4.3-5.8-8-1.3-1.4-2.4-2.3-3-2.6-6.4-4.3-6-3.2-13-3.5-12.8 0-22.4 9-3.7 3.4-6 7.6-1 1.4-1.5 2.8Q-31-11-31.5-5v2.2q-.2 1.6-.5 29v1q.6 1.8 2 3.3 2 1.6 5.6 2.8l3 .5 3.2.5q1.2 0 2.3.2 8.6.5 9.6.8h1.9l3.8.2H11l12-1q6.6-1.5 7.8-5.8.4-1 .8-6z" stroke-linejoin="round" stroke-linecap="round"/>
  </g>
  <g transform="matrix(.8991 -.43482 .43472 .8993 160.55 149.46)">
    <path id="u" fill="#FFF" d="M-14.2-9.3h-1.7q-1.2 0-2 .5-1.8 1-2.4 3-.8 2.3.4 4.2 1 2 3 2.4l31.2 8.4q2 .7 4-.4 1.8-1 2.3-3 .3-1.2 0-2.5 0-1.4-.8-2Q18.3-.5 17-1l-31-8.5z"/>
    <path id="v" fill="none" stroke="#E17107" stroke-width="3" d="M19.7 1q.7 1 1 2.3 0 1.3-.3 2.4-.4 2-2.3 3-1.8 1.2-3.8.6l-31-8.6q-2-.4-3.2-2.3-1-2-.4-4Q-19.8-8-18-9q.8-.5 2.2-.6 1 0 1.7.2L17-.8q1.3.4 2.7 1.8z" stroke-linejoin="round" stroke-linecap="round"/>
  </g>
  <g transform="matrix(.99998 0 0 1.0002 164.7 56.89)">
    <path id="w" fill="none" stroke="#E17107" stroke-width="3" d="M7.6 2.3Q7.6 4 7 5.5q-8-4-14-.3-.8-1.7-.6-3.4 0-3 2.4-5.3Q-3-5.7.3-5.5q3 0 5.5 2.3 2 2.4 2 5.5z" stroke-linejoin="round" stroke-linecap="round"/>
  </g>
  <g transform="matrix(.99998 0 0 1.0002 135.2 56.84)">
    <path id="w" fill="none" stroke="#E17107" stroke-width="3" d="M7.6 2.3Q7.6 4 7 5.5q-8-4-14-.3-.8-1.7-.6-3.4 0-3 2.4-5.3Q-3-5.7.3-5.5q3 0 5.5 2.3 2 2.4 2 5.5z" stroke-linejoin="round" stroke-linecap="round"/>
  </g>
  <g transform="matrix(.99495 -.10004 .10002 .99518 150.25 70.194)">
    <path id="x" fill="none" stroke="#E17107" stroke-width="3" d="M-31.3-3.5Q3.2 9.2 31.3-1" stroke-linejoin="round" stroke-linecap="round"/>
  </g>
  <g transform="matrix(.99998 0 0 1.0002 157.1 127.706)">
    <path id="y" fill="none" stroke="#E17107" stroke-width="2.1" d="M-10-.7q-.2 4.2 2.5 7.3 2.8 3 6.8 3.3 4.2.2 7.3-2.5 3-2.8 3.3-6.8.2-4.2-2.6-7.3Q4.7-9.8.6-10q-4-.3-7.2 2.5-3 2.8-3.3 6.8zm5.7.4q-.2 2 1 3.2 1.3 1.3 3 1.3 2 .2 3.2-1Q4.2 2 4.2.3q.2-2-1-3.2Q2-4.2.3-4.4q-2 0-3.2 1Q-4.2-2-4.2 0z" stroke-linejoin="round" stroke-linecap="round"/>
  </g>
  <g transform="scale(.9986 .99884) rotate(-28.055 370.07 -192.432)">
    <path id="e" fill="none" stroke="#E17107" stroke-width="3" d="M0 3v-6" stroke-linejoin="round" stroke-linecap="round"/>
  </g>
  <g transform="scale(.9986 .99884) rotate(-28.055 371.748 -184.24)">
    <path id="e" fill="none" stroke="#E17107" stroke-width="3" d="M0 3v-6" stroke-linejoin="round" stroke-linecap="round"/>
  </g>
  <g transform="scale(.99878 .999) rotate(157.16 47.926 82.068)">
    <path id="o" fill="#FFF" d="M-3.3-13.8H-4q-4 .6-3.4 10.4l1 11.8q.5 4.4 2.8 5.3.5.3 1 .2l5.5-.2q3.2-.2 4-5.5l.4-11.8Q7.8-14 3.4-14l-6.7.2z"/>
    <path id="p" fill="none" stroke="#E17107" stroke-width="3" d="M3 13.8h-6.5q-2.4-1-3-5.4l-1-11.8q-.4-9.8 3.6-10.5l.7.2h6.7q4.4 0 4 10.3L7 8.3q-.8 5.3-4 5.6v-.2z" stroke-linejoin="round" stroke-linecap="round"/>
  </g>
  <g transform="matrix(.99998 0 0 1.0002 172.3 176.867)">
    <path id="z" fill="#FFF" d="M6.5-2.6Q4-5 .3-5.2h-1q-3.5.3-5.8 2.7-3 2.8-2.8 6.7v1H9.4V4q0-4-2.8-6.6z"/>
    <path id="A" fill="none" stroke="#E17107" stroke-width="3" d="M.3-5.2h-1q-3.5.3-5.8 2.7-3 2.8-2.8 6.7v1H9.4V4q0-4-2.8-6.6Q4-5 .3-5.2z" stroke-linejoin="round" stroke-linecap="round"/>
  </g>
  <g transform="scale(.99853 .99876) rotate(59.94 -72.967 218.65)">
    <path id="z" fill="#FFF" d="M6.5-2.6Q4-5 .3-5.2h-1q-3.5.3-5.8 2.7-3 2.8-2.8 6.7v1H9.4V4q0-4-2.8-6.6z"/>
    <path id="A" fill="none" stroke="#E17107" stroke-width="3" d="M.3-5.2h-1q-3.5.3-5.8 2.7-3 2.8-2.8 6.7v1H9.4V4q0-4-2.8-6.6Q4-5 .3-5.2z" stroke-linejoin="round" stroke-linecap="round"/>
  </g>
</svg>
